<svg width="128" height="128" viewBox="0 0 128 128" fill="none" xmlns="http://www.w3.org/2000/svg">
<path d="M99.0691 67.8725C99.2487 87.2066 116.03 93.6403 116.216 93.7224C116.074 94.1759 113.534 102.891 107.375 111.893C102.05 119.676 96.5234 127.429 87.8173 127.59C79.2637 127.748 76.5127 122.518 66.7327 122.518C56.9555 122.518 53.8994 127.429 45.8016 127.748C37.3983 128.066 30.9992 119.332 25.6305 111.578C14.659 95.7168 6.27485 66.7575 17.5327 47.2097C23.1253 37.502 33.1203 31.3551 43.9682 31.1975C52.2199 31.0402 60.0088 36.749 65.0533 36.749C70.0944 36.749 79.5595 29.8837 89.5098 30.8919C93.6749 31.0654 105.368 32.5742 112.876 43.5643C112.271 43.9394 98.9241 51.7092 99.0691 67.8729M82.9928 20.3983C87.4545 14.9979 90.457 7.48048 89.6378 0C83.2069 0.258438 75.431 4.28536 70.8181 9.68249C66.6843 14.4624 63.0642 22.1123 64.041 29.4445C71.209 29.9991 78.5314 25.802 82.9932 20.3983" fill="black"/>
</svg>
