<svg width="128" height="128" viewBox="0 0 128 128" fill="none" xmlns="http://www.w3.org/2000/svg">
<path d="M64.0005 0C28.6585 0 0 29.3788 0 65.6204C0 94.6132 18.338 119.211 43.7675 127.888C46.966 128.495 48.1405 126.464 48.1405 124.731C48.1405 123.166 48.0805 117.997 48.0535 112.514C30.2485 116.483 26.4915 104.771 26.4915 104.771C23.58 97.1867 19.385 95.1694 19.385 95.1694C13.5785 91.0968 19.823 91.1809 19.823 91.1809C26.2495 91.6433 29.6335 97.9428 29.6335 97.9428C35.342 107.974 44.606 105.074 48.258 103.397C48.8325 99.1568 50.491 96.2613 52.3215 94.6229C38.106 92.9639 23.1625 87.337 23.1625 62.1933C23.1625 55.029 25.6625 49.1749 29.7565 44.5795C29.092 42.9267 26.9015 36.2529 30.3765 27.2138C30.3765 27.2138 35.751 25.4503 47.9815 33.9404C53.0865 32.4865 58.5615 31.7575 64.0005 31.7324C69.4395 31.7575 74.919 32.486 80.0335 33.9404C92.249 25.4508 97.616 27.2143 97.616 27.2143C101.099 36.2524 98.908 42.9272 98.2435 44.5795C102.347 49.1749 104.83 55.029 104.83 62.1933C104.83 87.397 89.858 92.9465 75.6065 94.5711C77.902 96.6074 79.9475 100.601 79.9475 106.723C79.9475 115.503 79.8735 122.569 79.8735 124.731C79.8735 126.477 81.0255 128.523 84.2695 127.878C109.685 119.192 128 94.6039 128 65.6209C128 29.3788 99.3455 0 64.0005 0ZM23.9705 93.4776C23.8295 93.8037 23.329 93.9016 22.8735 93.6776C22.409 93.4638 22.1485 93.0193 22.2985 92.6922C22.4365 92.3564 22.938 92.2626 23.401 92.4877C23.866 92.702 24.131 93.1505 23.9705 93.4776ZM27.1185 96.3577C26.8135 96.6479 26.2165 96.513 25.8115 96.0547C25.393 95.5975 25.3145 94.9853 25.624 94.6911C25.939 94.4009 26.5175 94.5368 26.937 94.994C27.356 95.457 27.437 96.0645 27.1185 96.3577ZM29.2785 100.043C28.886 100.322 28.245 100.06 27.8485 99.4767C27.4565 98.8933 27.4565 98.1935 27.857 97.9131C28.2545 97.6327 28.886 97.8849 29.2875 98.4642C29.6785 99.0574 29.6785 99.7571 29.278 100.043L29.2785 100.043ZM32.9305 104.311C32.58 104.707 31.8325 104.601 31.2855 104.059C30.726 103.53 30.5705 102.78 30.9225 102.383C31.2775 101.985 32.029 102.097 32.58 102.634C33.135 103.162 33.305 103.918 32.9305 104.311ZM37.6515 105.751C37.4965 106.265 36.7765 106.499 36.052 106.281C35.328 106.056 34.8545 105.454 35.0005 104.934C35.151 104.417 35.874 104.174 36.604 104.407C37.327 104.631 37.802 105.229 37.6515 105.752V105.751ZM43.0235 106.363C43.0415 106.904 42.427 107.352 41.666 107.362C40.901 107.38 40.2815 106.942 40.273 106.409C40.273 105.863 40.874 105.418 41.6395 105.405C42.4005 105.39 43.0235 105.824 43.0235 106.363ZM48.301 106.155C48.392 106.683 47.8635 107.225 47.1075 107.37C46.365 107.509 45.677 107.183 45.5825 106.66C45.4905 106.118 46.029 105.576 46.7705 105.436C47.5275 105.301 48.2045 105.618 48.301 106.155Z" fill="#161614"/>
</svg>
