<svg width="128" height="128" viewBox="0 0 128 128" fill="none" xmlns="http://www.w3.org/2000/svg">
<path d="M126.475 65.1974C126.475 59.9533 126.049 56.1265 125.128 52.158H65.2458V75.8273H100.396C99.6871 81.7094 95.8603 90.5678 87.3561 96.5203L87.2369 97.3127L106.171 111.98L107.482 112.111C119.53 100.985 126.475 84.6148 126.475 65.1974Z" fill="#4285F4"/>
<path d="M65.2458 127.56C82.4662 127.56 96.9229 121.891 107.482 112.111L87.3561 96.5203C81.9703 100.276 74.7417 102.898 65.2458 102.898C48.3796 102.898 34.0646 91.7726 28.9617 76.3945L28.2137 76.458L8.52617 91.6944L8.26871 92.4101C18.7569 113.245 40.3005 127.56 65.2458 127.56Z" fill="#34A853"/>
<path d="M28.9617 76.3945C27.6153 72.426 26.836 68.1737 26.836 63.7802C26.836 59.3861 27.6153 55.1343 28.8909 51.1658L28.8552 50.3206L8.92092 34.8394L8.26871 35.1497C3.94602 43.7955 1.46565 53.5045 1.46565 63.7802C1.46565 74.0558 3.94602 83.7643 8.26871 92.4101L28.9617 76.3945Z" fill="#FBBC05"/>
<path d="M65.2458 24.6615C77.2221 24.6615 85.3008 29.8347 89.9073 34.1579L107.907 16.5828C96.8525 6.30718 82.4662 0 65.2458 0C40.3005 0 18.7569 14.315 8.26871 35.1497L28.8909 51.1658C34.0646 35.7877 48.3796 24.6615 65.2458 24.6615Z" fill="#EB4335"/>
</svg>
