<svg width="128" height="128" viewBox="0 0 128 128" fill="none" xmlns="http://www.w3.org/2000/svg">
<path d="M63.8095 88.619C66.1838 88.619 68.4609 87.6759 70.1398 85.997C71.8186 84.3181 72.7618 82.041 72.7618 79.6667C72.7618 77.2923 71.8186 75.0153 70.1398 73.3364C68.4609 71.6575 66.1838 70.7143 63.8095 70.7143C61.4351 70.7143 59.1581 71.6575 57.4792 73.3364C55.8003 75.0153 54.8571 77.2923 54.8571 79.6667C54.8571 82.041 55.8003 84.3181 57.4792 85.997C59.1581 87.6759 61.4351 88.619 63.8095 88.619ZM90.6666 48.3333C93.0409 48.3333 95.318 49.2765 96.9969 50.9554C98.6758 52.6343 99.619 54.9114 99.619 57.2857V102.048C99.619 104.422 98.6758 106.699 96.9969 108.378C95.318 110.057 93.0409 111 90.6666 111H36.9523C34.578 111 32.3009 110.057 30.622 108.378C28.9431 106.699 27.9999 104.422 27.9999 102.048V57.2857C27.9999 54.9114 28.9431 52.6343 30.622 50.9554C32.3009 49.2765 34.578 48.3333 36.9523 48.3333H41.4285V39.381C41.4285 33.4452 43.7865 27.7525 47.9837 23.5552C52.181 19.358 57.8737 17 63.8095 17C66.7486 17 69.6589 17.5789 72.3743 18.7036C75.0897 19.8284 77.5569 21.477 79.6352 23.5552C81.7135 25.6335 83.362 28.1007 84.4868 30.8161C85.6115 33.5315 86.1904 36.4418 86.1904 39.381V48.3333H90.6666ZM63.8095 25.9524C60.248 25.9524 56.8324 27.3672 54.314 29.8855C51.7957 32.4039 50.3809 35.8195 50.3809 39.381V48.3333H77.238V39.381C77.238 35.8195 75.8232 32.4039 73.3049 29.8855C70.7866 27.3672 67.3709 25.9524 63.8095 25.9524Z" fill="black"/>
</svg>
