<svg width="128" height="128" viewBox="0 0 128 128" fill="none" xmlns="http://www.w3.org/2000/svg">
<path d="M56.48 71.52C58.6667 73.6 58.6667 77.0133 56.48 79.0933C54.4 81.1733 50.9867 81.1733 48.9067 79.0933C43.9114 74.0905 41.1057 67.3097 41.1057 60.24C41.1057 53.1703 43.9114 46.3895 48.9067 41.3867L67.7867 22.5067C72.7895 17.5113 79.5703 14.7056 86.64 14.7056C93.7098 14.7056 100.491 17.5113 105.493 22.5067C110.489 27.5095 113.294 34.2903 113.294 41.36C113.294 48.4297 110.489 55.2105 105.493 60.2133L97.5467 68.16C97.6 63.7867 96.9067 59.4133 95.4133 55.2533L97.92 52.6933C99.4151 51.2143 100.602 49.4535 101.412 47.5127C102.222 45.5719 102.639 43.4897 102.639 41.3867C102.639 39.2836 102.222 37.2014 101.412 35.2606C100.602 33.3198 99.4151 31.559 97.92 30.08C96.441 28.5849 94.6802 27.3979 92.7394 26.5878C90.7986 25.7778 88.7164 25.3607 86.6133 25.3607C84.5103 25.3607 82.4281 25.7778 80.4873 26.5878C78.5465 27.3979 76.7857 28.5849 75.3067 30.08L56.48 48.9067C54.9849 50.3857 53.7979 52.1465 52.9878 54.0873C52.1778 56.0281 51.7607 58.1103 51.7607 60.2133C51.7607 62.3164 52.1778 64.3986 52.9878 66.3394C53.7979 68.2801 54.9849 70.041 56.48 71.52Z" fill="black"/>
<path d="M71.52 48.9067C73.6 46.8267 77.0133 46.8267 79.0933 48.9067C84.0886 53.9095 86.8943 60.6902 86.8943 67.76C86.8943 74.8297 84.0886 81.6105 79.0933 86.6133L60.2133 105.493C55.2105 110.489 48.4297 113.294 41.36 113.294C34.2902 113.294 27.5095 110.489 22.5066 105.493C17.5113 100.491 14.7056 93.7097 14.7056 86.64C14.7056 79.5703 17.5113 72.7895 22.5066 67.7867L30.4533 59.84C30.4 64.2133 31.0933 68.5867 32.5867 72.8L30.08 75.3067C28.5848 76.7857 27.3979 78.5465 26.5878 80.4873C25.7777 82.4281 25.3606 84.5103 25.3606 86.6133C25.3606 88.7164 25.7777 90.7986 26.5878 92.7394C27.3979 94.6801 28.5848 96.441 30.08 97.92C31.559 99.4151 33.3198 100.602 35.2606 101.412C37.2014 102.222 39.2836 102.639 41.3867 102.639C43.4897 102.639 45.5719 102.222 47.5127 101.412C49.4535 100.602 51.2143 99.4151 52.6933 97.92L71.52 79.0933C73.0151 77.6143 74.2021 75.8535 75.0121 73.9127C75.8222 71.9719 76.2393 69.8897 76.2393 67.7867C76.2393 65.6836 75.8222 63.6014 75.0121 61.6606C74.2021 59.7199 73.0151 57.959 71.52 56.48C71.002 55.9946 70.5891 55.4081 70.3068 54.7568C70.0246 54.1055 69.8789 53.4032 69.8789 52.6933C69.8789 51.9835 70.0246 51.2812 70.3068 50.6298C70.5891 49.9785 71.002 49.392 71.52 48.9067Z" fill="black"/>
<path d="M99 107L94 96L83 91L94 86L99 75L104 86L115 91L104 96L99 107ZM115 111L112.5 105.5L107 103L112.5 100.5L115 95L117.5 100.5L123 103L117.5 105.5L115 111Z" fill="black"/>
</svg>
