<svg width="128" height="128" viewBox="0 0 128 128" fill="none" xmlns="http://www.w3.org/2000/svg">
<path d="M55.6096 72.3904C58.0494 74.7112 58.0494 78.5196 55.6096 80.8403C53.2889 83.1611 49.4805 83.1611 47.1597 80.8403C41.5862 75.2585 38.4557 67.6928 38.4557 59.8048C38.4557 51.9167 41.5862 44.3511 47.1597 38.7693L68.225 17.704C73.8069 12.1305 81.3725 9 89.2605 9C97.1486 9 104.714 12.1305 110.296 17.704C115.87 23.2858 119 30.8515 119 38.7395C119 46.6275 115.87 54.1932 110.296 59.775L101.43 68.6415C101.489 63.762 100.716 58.8824 99.0494 54.2409L101.846 51.3846C103.514 49.7344 104.839 47.7698 105.743 45.6044C106.646 43.4389 107.112 41.1157 107.112 38.7693C107.112 36.4228 106.646 34.0996 105.743 31.9342C104.839 29.7687 103.514 27.8041 101.846 26.1539C100.196 24.4857 98.2313 23.1614 96.0659 22.2575C93.9005 21.3537 91.5773 20.8883 89.2308 20.8883C86.8843 20.8883 84.5611 21.3537 82.3957 22.2575C80.2303 23.1614 78.2656 24.4857 76.6154 26.1539L55.6096 47.1597C53.9414 48.8099 52.6171 50.7745 51.7133 52.9399C50.8094 55.1054 50.344 57.4286 50.344 59.775C50.344 62.1215 50.8094 64.4447 51.7133 66.6101C52.6171 68.7756 53.9414 70.7402 55.6096 72.3904Z" fill="black"/>
<path d="M72.3904 47.1597C74.7112 44.8389 78.5196 44.8389 80.8403 47.1597C86.4138 52.7415 89.5443 60.3072 89.5443 68.1952C89.5443 76.0832 86.4138 83.6489 80.8403 89.2307L59.775 110.296C54.1932 115.87 46.6275 119 38.7395 119C30.8515 119 23.2858 115.87 17.704 110.296C12.1305 104.714 9 97.1485 9 89.2605C9 81.3725 12.1305 73.8068 17.704 68.225L26.5704 59.3585C26.5109 64.238 27.2845 69.1175 28.9507 73.8186L26.1539 76.6154C24.4857 78.2656 23.1614 80.2302 22.2575 82.3956C21.3537 84.5611 20.8883 86.8842 20.8883 89.2307C20.8883 91.5772 21.3537 93.9004 22.2575 96.0658C23.1614 98.2313 24.4857 100.196 26.1539 101.846C27.8041 103.514 29.7687 104.839 31.9342 105.742C34.0996 106.646 36.4228 107.112 38.7693 107.112C41.1157 107.112 43.4389 106.646 45.6044 105.742C47.7698 104.839 49.7344 103.514 51.3846 101.846L72.3904 80.8403C74.0586 79.1901 75.3829 77.2255 76.2868 75.0601C77.1906 72.8946 77.656 70.5714 77.656 68.225C77.656 65.8785 77.1906 63.5553 76.2868 61.3899C75.3829 59.2244 74.0586 57.2598 72.3904 55.6096C71.8125 55.068 71.3518 54.4137 71.0369 53.687C70.7219 52.9602 70.5594 52.1766 70.5594 51.3846C70.5594 50.5926 70.7219 49.809 71.0369 49.0823C71.3518 48.3556 71.8125 47.7012 72.3904 47.1597Z" fill="black"/>
<path d="M91 48L87.5625 40.4375L80 37L87.5625 33.5625L91 26L94.4375 33.5625L102 37L94.4375 40.4375L91 48Z" fill="black"/>
</svg>
