<svg width="128" height="128" viewBox="0 0 128 128" fill="none" xmlns="http://www.w3.org/2000/svg">
<path d="M12.8 43.2C12.8 38.5322 14.6543 34.0556 17.955 30.7549C21.2556 27.4543 25.7322 25.6 30.4 25.6H97.6001C102.268 25.6 106.744 27.4543 110.045 30.7549C113.346 34.0556 115.2 38.5322 115.2 43.2V78.4C115.2 83.0678 113.346 87.5444 110.045 90.8451C106.744 94.1457 102.268 96 97.6001 96H30.4C25.7322 96 21.2556 94.1457 17.955 90.8451C14.6543 87.5444 12.8 83.0678 12.8 78.4V43.2ZM45.7344 52.1344L41.6 56.2752L37.4656 52.1344C36.8648 51.5335 36.0498 51.196 35.2 51.196C34.3503 51.196 33.5353 51.5335 32.9344 52.1344C32.3336 52.7353 31.996 53.5502 31.996 54.4C31.996 55.2498 32.3336 56.0647 32.9344 56.6656L37.0753 60.8L32.9344 64.9344C32.3336 65.5353 31.996 66.3502 31.996 67.2C31.996 68.0498 32.3336 68.8647 32.9344 69.4656C33.5353 70.0665 34.3503 70.404 35.2 70.404C36.0498 70.404 36.8648 70.0665 37.4656 69.4656L41.6 65.3248L45.7344 69.4656C46.3353 70.0665 47.1503 70.404 48 70.404C48.8498 70.404 49.6648 70.0665 50.2656 69.4656C50.8665 68.8647 51.2041 68.0498 51.2041 67.2C51.2041 66.3502 50.8665 65.5353 50.2656 64.9344L46.1248 60.8L50.2656 56.6656C50.5632 56.3681 50.7992 56.0149 50.9602 55.6261C51.1212 55.2374 51.2041 54.8208 51.2041 54.4C51.2041 53.9792 51.1212 53.5626 50.9602 53.1739C50.7992 52.7851 50.5632 52.4319 50.2656 52.1344C49.9681 51.8369 49.6149 51.6009 49.2262 51.4399C48.8375 51.2788 48.4208 51.196 48 51.196C47.5793 51.196 47.1626 51.2788 46.7739 51.4399C46.3852 51.6009 46.032 51.8369 45.7344 52.1344V52.1344ZM71.3344 52.1344L67.2 56.2752L63.0657 52.1344C62.4648 51.5335 61.6498 51.196 60.8 51.196C59.9503 51.196 59.1353 51.5335 58.5344 52.1344C57.9336 52.7353 57.596 53.5502 57.596 54.4C57.596 55.2498 57.9336 56.0647 58.5344 56.6656L62.6753 60.8L58.5344 64.9344C57.9336 65.5353 57.596 66.3502 57.596 67.2C57.596 68.0498 57.9336 68.8647 58.5344 69.4656C59.1353 70.0665 59.9503 70.404 60.8 70.404C61.6498 70.404 62.4648 70.0665 63.0657 69.4656L67.2 65.3248L71.3344 69.4656C71.9353 70.0665 72.7503 70.404 73.6 70.404C74.4498 70.404 75.2648 70.0665 75.8657 69.4656C76.4665 68.8647 76.8041 68.0498 76.8041 67.2C76.8041 66.3502 76.4665 65.5353 75.8657 64.9344L71.7248 60.8L75.8657 56.6656C76.4665 56.0647 76.8041 55.2498 76.8041 54.4C76.8041 53.5502 76.4665 52.7353 75.8657 52.1344C75.2648 51.5335 74.4498 51.196 73.6 51.196C72.7503 51.196 71.9353 51.5335 71.3344 52.1344V52.1344ZM83.2 67.2C83.2 68.0487 83.5372 68.8626 84.1373 69.4628C84.7374 70.0629 85.5514 70.4 86.4 70.4H99.2001C100.049 70.4 100.863 70.0629 101.463 69.4628C102.063 68.8626 102.4 68.0487 102.4 67.2C102.4 66.3513 102.063 65.5374 101.463 64.9373C100.863 64.3371 100.049 64 99.2001 64H86.4C85.5514 64 84.7374 64.3371 84.1373 64.9373C83.5372 65.5374 83.2 66.3513 83.2 67.2Z" fill="black"/>
</svg>
