<svg width="128" height="128" viewBox="0 0 128 128" fill="none" xmlns="http://www.w3.org/2000/svg">
<path d="M102.56 81.3867L89.0133 79.84C87.4204 79.6529 85.8059 79.8293 84.291 80.3558C82.776 80.8823 81.4001 81.7453 80.2666 82.88L70.4533 92.6933C55.313 84.9932 43.0068 72.687 35.3066 57.5467L45.1733 47.68C47.4666 45.3867 48.5866 42.1867 48.2133 38.9333L46.6666 25.4933C46.3643 22.8916 45.1157 20.4919 43.1586 18.7512C41.2015 17.0104 38.6725 16.0502 36.0533 16.0533H26.8266C20.8 16.0533 15.7866 21.0667 16.16 27.0933C18.9866 72.64 55.4133 109.013 100.907 111.84C106.933 112.213 111.947 107.2 111.947 101.173V91.9467C112 86.56 107.947 82.0267 102.56 81.3867V81.3867Z" fill="black"/>
</svg>
