<svg width="128" height="128" viewBox="0 0 128 128" fill="none" xmlns="http://www.w3.org/2000/svg">
<path d="M128 24.225C123.207 26.3484 118.123 27.7422 112.917 28.36C118.34 25.11 122.503 19.9635 124.464 13.8315C119.309 16.8904 113.669 19.0456 107.788 20.204C102.998 15.1005 96.173 11.911 88.6195 11.911C74.1165 11.911 62.358 23.669 62.358 38.171C62.358 40.2295 62.5905 42.2335 63.038 44.156C41.213 43.0605 21.863 32.606 8.9105 16.718C6.6505 20.5965 5.3555 25.108 5.3555 29.92C5.3555 39.031 9.992 47.0685 17.038 51.778C12.8677 51.6474 8.78924 50.521 5.143 48.493C5.1415 48.603 5.1415 48.713 5.1415 48.8235C5.1415 61.547 14.1935 72.161 26.2065 74.5735C22.3394 75.6252 18.2831 75.7791 14.3475 75.0235C17.689 85.4565 27.3875 93.0485 38.8785 93.261C29.891 100.304 18.5675 104.502 6.2645 104.502C4.1445 104.502 2.0545 104.378 0 104.135C11.6215 111.586 25.425 115.934 40.255 115.934C88.5585 115.934 114.972 75.9185 114.972 41.2165C114.972 40.0775 114.947 38.945 114.896 37.819C120.037 34.1024 124.475 29.4991 128 24.225Z" fill="#55ACEE"/>
</svg>
