<svg width="128" height="128" viewBox="0 0 128 128" fill="none" xmlns="http://www.w3.org/2000/svg">
<g filter="url(#filter0_d_1803_242)">
<path d="M63.8798 15C67.8793 15 75.5701 16.6403 83.9306 18.8545C92.1178 21.0245 100.396 23.5777 105.299 25.1445C105.945 25.348 106.519 25.7243 106.956 26.2314C107.393 26.7387 107.675 27.3563 107.769 28.0127C111.942 58.5918 102.301 80.9104 90.7998 95.6006C85.9302 101.885 80.1238 107.423 73.5742 112.027C70.9681 113.815 68.6553 115.117 66.8476 115.948C65.944 116.367 65.2061 116.647 64.6338 116.816C64.3884 116.898 64.1357 116.959 63.8798 117C63.6241 116.959 63.3722 116.898 63.1269 116.816C62.5545 116.647 61.8159 116.368 60.9121 115.948C59.1045 115.117 56.7924 113.815 54.1865 112.027C47.6368 107.423 41.8305 101.886 36.9609 95.6006C25.4596 80.9104 15.8185 58.592 19.9912 28.0127C20.0857 27.3563 20.3678 26.7387 20.8046 26.2314C21.2415 25.7243 21.816 25.348 22.4619 25.1445C27.3652 23.5777 35.6428 21.0245 43.83 18.8545C52.1903 16.6404 59.8803 15.0001 63.8798 15Z" fill="#FF4646"/>
</g>
<g filter="url(#filter1_d_1803_242)">
<path d="M64.0001 16C67.9211 16 75.4608 17.6085 83.6573 19.7793C91.6836 21.9067 99.7984 24.4092 104.606 25.9453C105.239 26.1448 105.802 26.5144 106.231 27.0117C106.659 27.5091 106.936 28.1142 107.028 28.7578C111.119 58.7374 101.667 80.6184 90.3917 95.0205C85.6176 101.182 79.9251 106.611 73.504 111.125C70.949 112.877 68.6815 114.154 66.9092 114.969C66.0232 115.38 65.2995 115.653 64.7383 115.819C64.4978 115.899 64.2509 115.96 64.0001 116C63.7492 115.96 63.5023 115.899 63.2618 115.819C62.7006 115.653 61.9769 115.38 61.0909 114.969C59.3187 114.154 57.0511 112.877 54.4962 111.125C48.075 106.611 42.3826 101.182 37.6085 95.0205C26.3327 80.6184 16.8809 58.7375 20.9717 28.7578C21.0644 28.1142 21.3413 27.5091 21.7696 27.0117C22.1978 26.5145 22.7605 26.1448 23.3936 25.9453C28.2007 24.4092 36.3162 21.9068 44.3428 19.7793C52.5394 17.6085 60.079 16 64.0001 16Z" fill="#850000"/>
</g>
<path d="M64.7385 115.82C64.4979 115.9 64.2509 115.96 64 116V16C67.9211 16 75.4604 17.6082 83.657 19.779C91.6837 21.9065 99.7991 24.4091 104.606 25.9452C105.24 26.1447 105.803 26.5143 106.231 27.0117C106.659 27.5091 106.936 28.1142 107.028 28.7578C111.119 58.7376 101.667 80.6185 90.3915 95.0206C85.6173 101.182 79.9249 106.611 73.5036 111.125C70.9486 112.877 68.6817 114.154 66.9094 114.969C66.0233 115.38 65.2997 115.654 64.7385 115.82Z" fill="url(#paint0_linear_1803_242)"/>
<path d="M63.2616 115.82C63.5021 115.9 63.7492 115.96 64 116V16C60.079 16 52.5396 17.6082 44.3431 19.779C36.3163 21.9065 28.201 24.4091 23.3938 25.9452C22.7605 26.1447 22.1974 26.5143 21.7691 27.0117C21.3407 27.5091 21.0644 28.1142 20.9718 28.7578C16.8809 58.7376 26.3328 80.6185 37.6086 95.0206C42.3827 101.182 48.0752 106.611 54.4965 111.125C57.0514 112.877 59.3184 114.154 61.0906 114.969C61.9767 115.38 62.7004 115.654 63.2616 115.82Z" fill="url(#paint1_linear_1803_242)"/>
<path d="M99 37.3922C77.9458 42.5265 76.5665 62.7721 73 97.0392V30L99 37.3922Z" fill="url(#paint2_linear_1803_242)"/>
<path d="M29 37.3922C50.0542 42.5265 51.4335 62.7721 55 97.0392V30L29 37.3922Z" fill="url(#paint3_linear_1803_242)"/>
<g filter="url(#filter2_d_1803_242)">
<path fill-rule="evenodd" clip-rule="evenodd" d="M109.46 79.0884C105.889 73.9773 98.8364 72.4623 93.7369 75.7114L84.7809 81.4195C82.3345 82.9585 80.6495 85.4568 80.139 88.3015C79.7118 90.6714 80.0873 93.1161 81.2061 95.2485C80.4395 96.4114 79.9166 97.7177 79.6691 99.0884C79.1537 101.988 79.8279 104.973 81.5395 107.369C85.1113 112.481 92.1641 113.995 97.2629 110.746L106.219 105.038C108.665 103.499 110.35 101.001 110.861 98.1558C111.288 95.7859 110.913 93.3413 109.794 91.2086C110.561 90.0458 111.084 88.7396 111.331 87.369C111.847 84.4695 111.172 81.4846 109.46 79.0884Z" fill="#EB5757"/>
<path d="M92.8439 107.902C89.9562 108.653 86.9067 107.523 85.2061 105.071C84.1763 103.63 83.7706 101.834 84.0807 100.09C84.1327 99.8068 84.2042 99.5272 84.2948 99.2536L84.4635 98.7392L84.9225 99.0763C85.9824 99.8551 87.1676 100.447 88.4269 100.827L88.7598 100.928L88.7292 101.261C88.6885 101.733 88.8165 102.205 89.0905 102.593C89.6023 103.331 90.5204 103.672 91.3901 103.446C91.5848 103.394 91.7704 103.313 91.9404 103.204L100.221 97.9272L100.444 98.2763C100.618 98.5503 101.035 98.4877 101.121 98.1745L102.096 94.6392C102.155 94.425 102.016 94.2067 101.797 94.1697L98.1811 93.5592C97.8607 93.5051 97.6278 93.8564 97.8024 94.1305L98.0206 94.4729L95.1331 96.3136C94.571 96.671 93.9575 96.9404 93.3139 97.1125C90.4263 97.8633 87.3768 96.7329 85.6762 94.2814C84.6464 92.8399 84.2407 91.0444 84.5508 89.3002C84.8578 87.589 85.8715 86.0864 87.3432 85.161L96.3013 79.4514C96.8637 79.0934 97.4776 78.8236 98.1217 78.6515C101.009 77.9008 104.059 79.0311 105.759 81.4826C106.789 82.9241 107.195 84.7196 106.885 86.4638C106.833 86.7472 106.761 87.0267 106.671 87.3004L106.502 87.8148L106.043 87.4782C104.983 86.699 103.798 86.1065 102.539 85.7265L102.206 85.6255L102.236 85.2932C102.277 84.8205 102.149 84.3487 101.875 83.9612C101.363 83.2227 100.445 82.882 99.5753 83.1077C99.3806 83.1597 99.1951 83.2413 99.0251 83.3495L90.6871 88.6614L90.451 88.2908C90.2764 88.0168 89.8596 88.0794 89.7732 88.3926L88.7983 91.9279C88.7393 92.1421 88.8783 92.3604 89.0974 92.3974L92.7135 93.0079C93.0339 93.062 93.2668 92.7107 93.0922 92.4366L92.8886 92.1171L95.8326 90.2409C96.3945 89.883 97.0079 89.6134 97.6516 89.4414C100.539 88.6906 103.589 89.8209 105.289 92.2725C106.319 93.7139 106.725 95.5095 106.415 97.2536C106.107 98.9649 105.094 100.468 103.622 101.394L94.6641 107.103C94.1017 107.461 93.4878 107.73 92.8437 107.902H92.8439Z" fill="white"/>
</g>
<defs>
<filter id="filter0_d_1803_242" x="15" y="15" width="97.7607" height="110" filterUnits="userSpaceOnUse" color-interpolation-filters="sRGB">
<feFlood flood-opacity="0" result="BackgroundImageFix"/>
<feColorMatrix in="SourceAlpha" type="matrix" values="0 0 0 0 0 0 0 0 0 0 0 0 0 0 0 0 0 0 127 0" result="hardAlpha"/>
<feOffset dy="4"/>
<feGaussianBlur stdDeviation="2"/>
<feComposite in2="hardAlpha" operator="out"/>
<feColorMatrix type="matrix" values="0 0 0 0 0 0 0 0 0 0 0 0 0 0 0 0 0 0 0.25 0"/>
<feBlend mode="normal" in2="BackgroundImageFix" result="effect1_dropShadow_1803_242"/>
<feBlend mode="normal" in="SourceGraphic" in2="effect1_dropShadow_1803_242" result="shape"/>
</filter>
<filter id="filter1_d_1803_242" x="16" y="16" width="96.0001" height="108" filterUnits="userSpaceOnUse" color-interpolation-filters="sRGB">
<feFlood flood-opacity="0" result="BackgroundImageFix"/>
<feColorMatrix in="SourceAlpha" type="matrix" values="0 0 0 0 0 0 0 0 0 0 0 0 0 0 0 0 0 0 127 0" result="hardAlpha"/>
<feOffset dy="4"/>
<feGaussianBlur stdDeviation="2"/>
<feComposite in2="hardAlpha" operator="out"/>
<feColorMatrix type="matrix" values="0 0 0 0 0 0 0 0 0 0 0 0 0 0 0 0 0 0 0.25 0"/>
<feBlend mode="normal" in2="BackgroundImageFix" result="effect1_dropShadow_1803_242"/>
<feBlend mode="normal" in="SourceGraphic" in2="effect1_dropShadow_1803_242" result="shape"/>
</filter>
<filter id="filter2_d_1803_242" x="75.5" y="74" width="40" height="46.4574" filterUnits="userSpaceOnUse" color-interpolation-filters="sRGB">
<feFlood flood-opacity="0" result="BackgroundImageFix"/>
<feColorMatrix in="SourceAlpha" type="matrix" values="0 0 0 0 0 0 0 0 0 0 0 0 0 0 0 0 0 0 127 0" result="hardAlpha"/>
<feOffset dy="4"/>
<feGaussianBlur stdDeviation="2"/>
<feComposite in2="hardAlpha" operator="out"/>
<feColorMatrix type="matrix" values="0 0 0 0 0 0 0 0 0 0 0 0 0 0 0 0 0 0 0.25 0"/>
<feBlend mode="normal" in2="BackgroundImageFix" result="effect1_dropShadow_1803_242"/>
<feBlend mode="normal" in="SourceGraphic" in2="effect1_dropShadow_1803_242" result="shape"/>
</filter>
<linearGradient id="paint0_linear_1803_242" x1="64.2954" y1="15.8053" x2="106.654" y2="76.4667" gradientUnits="userSpaceOnUse">
<stop stop-color="#EB5757"/>
<stop offset="1" stop-color="#FC3131" stop-opacity="0"/>
</linearGradient>
<linearGradient id="paint1_linear_1803_242" x1="63.715" y1="16" x2="10.0949" y2="107.698" gradientUnits="userSpaceOnUse">
<stop stop-color="#EB5757"/>
<stop offset="1" stop-color="#FC3131" stop-opacity="0"/>
</linearGradient>
<linearGradient id="paint2_linear_1803_242" x1="86" y1="30" x2="86" y2="97.0392" gradientUnits="userSpaceOnUse">
<stop stop-color="white"/>
<stop offset="1" stop-color="#EB5757"/>
</linearGradient>
<linearGradient id="paint3_linear_1803_242" x1="42" y1="30" x2="42" y2="97.0392" gradientUnits="userSpaceOnUse">
<stop stop-color="white"/>
<stop offset="1" stop-color="#EB5757"/>
</linearGradient>
</defs>
</svg>
