<svg width="128" height="128" viewBox="0 0 128 128" fill="none" xmlns="http://www.w3.org/2000/svg">
<g filter="url(#filter0_d_1803_242)">
<path d="M65.8798 15C69.8793 15 77.5701 16.6403 85.9306 18.8545C94.1178 21.0245 102.396 23.5777 107.299 25.1445C107.945 25.348 108.519 25.7243 108.956 26.2314C109.393 26.7387 109.675 27.3563 109.769 28.0127C113.942 58.5918 104.301 80.9104 92.7998 95.6006C87.9302 101.885 82.1238 107.423 75.5742 112.027C72.9681 113.815 70.6553 115.117 68.8476 115.948C67.944 116.367 67.2061 116.647 66.6338 116.816C66.3884 116.898 66.1357 116.959 65.8798 117C65.6241 116.959 65.3722 116.898 65.1269 116.816C64.5545 116.647 63.8159 116.368 62.9121 115.948C61.1045 115.117 58.7924 113.815 56.1865 112.027C49.6368 107.423 43.8305 101.886 38.9609 95.6006C27.4596 80.9104 17.8185 58.592 21.9912 28.0127C22.0857 27.3563 22.3678 26.7387 22.8046 26.2314C23.2415 25.7243 23.816 25.348 24.4619 25.1445C29.3652 23.5777 37.6428 21.0245 45.83 18.8545C54.1903 16.6404 61.8803 15.0001 65.8798 15Z" fill="#FF4646"/>
</g>
<g filter="url(#filter1_d_1803_242)">
<path d="M66.0001 16C69.9211 16 77.4608 17.6085 85.6573 19.7793C93.6836 21.9067 101.798 24.4092 106.606 25.9453C107.239 26.1448 107.802 26.5144 108.231 27.0117C108.659 27.5091 108.936 28.1142 109.028 28.7578C113.119 58.7374 103.667 80.6184 92.3917 95.0205C87.6176 101.182 81.9251 106.611 75.504 111.125C72.949 112.877 70.6815 114.154 68.9092 114.969C68.0232 115.38 67.2995 115.653 66.7383 115.819C66.4978 115.899 66.2509 115.96 66.0001 116C65.7492 115.96 65.5023 115.899 65.2618 115.819C64.7006 115.653 63.9769 115.38 63.0909 114.969C61.3187 114.154 59.0511 112.877 56.4962 111.125C50.075 106.611 44.3826 101.182 39.6085 95.0205C28.3327 80.6184 18.8809 58.7375 22.9717 28.7578C23.0644 28.1142 23.3413 27.5091 23.7696 27.0117C24.1978 26.5145 24.7605 26.1448 25.3936 25.9453C30.2007 24.4092 38.3162 21.9068 46.3428 19.7793C54.5394 17.6085 62.079 16 66.0001 16Z" fill="#850000"/>
</g>
<path d="M66.7385 115.82C66.4979 115.9 66.2509 115.96 66 116V16C69.9211 16 77.4604 17.6082 85.657 19.779C93.6837 21.9065 101.799 24.4091 106.606 25.9452C107.24 26.1447 107.803 26.5143 108.231 27.0117C108.659 27.5091 108.936 28.1142 109.028 28.7578C113.119 58.7376 103.667 80.6185 92.3915 95.0206C87.6173 101.182 81.9249 106.611 75.5036 111.125C72.9486 112.877 70.6817 114.154 68.9094 114.969C68.0233 115.38 67.2997 115.654 66.7385 115.82Z" fill="url(#paint0_linear_1803_242)"/>
<path d="M65.2616 115.82C65.5021 115.9 65.7492 115.96 66 116V16C62.079 16 54.5396 17.6082 46.3431 19.779C38.3163 21.9065 30.201 24.4091 25.3938 25.9452C24.7605 26.1447 24.1974 26.5143 23.7691 27.0117C23.3407 27.5091 23.0644 28.1142 22.9718 28.7578C18.8809 58.7376 28.3328 80.6185 39.6086 95.0206C44.3827 101.182 50.0752 106.611 56.4965 111.125C59.0514 112.877 61.3184 114.154 63.0906 114.969C63.9767 115.38 64.7004 115.654 65.2616 115.82Z" fill="url(#paint1_linear_1803_242)"/>
<path d="M99 37.3922C77.9458 42.5265 76.5665 62.7721 73 97.0392V30L99 37.3922Z" fill="url(#paint2_linear_1803_242)"/>
<path d="M29 37.3922C50.0542 42.5265 51.4335 62.7721 55 97.0392V30L29 37.3922Z" fill="url(#paint3_linear_1803_242)"/>
<g filter="url(#filter2_d_1803_242)">
<path fill-rule="evenodd" clip-rule="evenodd" d="M109.46 79.0884C105.889 73.9773 98.8364 72.4623 93.7369 75.7114L84.7809 81.4195C82.3345 82.9585 80.6495 85.4568 80.139 88.3015C79.7118 90.6714 80.0873 93.1161 81.2061 95.2485C80.4395 96.4114 79.9166 97.7177 79.6691 99.0884C79.1537 101.988 79.8279 104.973 81.5395 107.369C85.1113 112.481 92.1641 113.995 97.2629 110.746L106.219 105.038C108.665 103.499 110.35 101.001 110.861 98.1558C111.288 95.7859 110.913 93.3413 109.794 91.2086C110.561 90.0458 111.084 88.7396 111.331 87.369C111.847 84.4695 111.172 81.4846 109.46 79.0884Z" fill="#EB5757"/>
<path d="M92.8439 107.902C89.9562 108.653 86.9067 107.523 85.2061 105.071C84.1763 103.63 83.7706 101.834 84.0807 100.09C84.1327 99.8068 84.2042 99.5272 84.2948 99.2536L84.4635 98.7392L84.9225 99.0763C85.9824 99.8551 87.1676 100.447 88.4269 100.827L88.7598 100.928L88.7292 101.261C88.6885 101.733 88.8165 102.205 89.0905 102.593C89.6023 103.331 90.5204 103.672 91.3901 103.446C91.5848 103.394 91.7704 103.313 91.9404 103.204L100.221 97.9272L100.444 98.2763C100.618 98.5503 101.035 98.4877 101.121 98.1745L102.096 94.6392C102.155 94.425 102.016 94.2067 101.797 94.1697L98.1811 93.5592C97.8607 93.5051 97.6278 93.8564 97.8024 94.1305L98.0206 94.4729L95.1331 96.3136C94.571 96.671 93.9575 96.9404 93.3139 97.1125C90.4263 97.8633 87.3768 96.7329 85.6762 94.2814C84.6464 92.8399 84.2407 91.0444 84.5508 89.3002C84.8578 87.589 85.8715 86.0864 87.3432 85.161L96.3013 79.4514C96.8637 79.0934 97.4776 78.8236 98.1217 78.6515C101.009 77.9008 104.059 79.0311 105.759 81.4826C106.789 82.9241 107.195 84.7196 106.885 86.4638C106.833 86.7472 106.761 87.0267 106.671 87.3004L106.502 87.8148L106.043 87.4782C104.983 86.699 103.798 86.1065 102.539 85.7265L102.206 85.6255L102.236 85.2932C102.277 84.8205 102.149 84.3487 101.875 83.9612C101.363 83.2227 100.445 82.882 99.5753 83.1077C99.3806 83.1597 99.1951 83.2413 99.0251 83.3495L90.6871 88.6614L90.451 88.2908C90.2764 88.0168 89.8596 88.0794 89.7732 88.3926L88.7983 91.9279C88.7393 92.1421 88.8783 92.3604 89.0974 92.3974L92.7135 93.0079C93.0339 93.062 93.2668 92.7107 93.0922 92.4366L92.8886 92.1171L95.8326 90.2409C96.3945 89.883 97.0079 89.6134 97.6516 89.4414C100.539 88.6906 103.589 89.8209 105.289 92.2725C106.319 93.7139 106.725 95.5095 106.415 97.2536C106.107 98.9649 105.094 100.468 103.622 101.394L94.6641 107.103C94.1017 107.461 93.4878 107.73 92.8437 107.902H92.8439Z" fill="white"/>
</g>
<defs>
<filter id="filter0_d_1803_242" x="17" y="15" width="97.7607" height="110" filterUnits="userSpaceOnUse" color-interpolation-filters="sRGB">
<feFlood flood-opacity="0" result="BackgroundImageFix"/>
<feColorMatrix in="SourceAlpha" type="matrix" values="0 0 0 0 0 0 0 0 0 0 0 0 0 0 0 0 0 0 127 0" result="hardAlpha"/>
<feOffset dy="4"/>
<feGaussianBlur stdDeviation="2"/>
<feComposite in2="hardAlpha" operator="out"/>
<feColorMatrix type="matrix" values="0 0 0 0 0 0 0 0 0 0 0 0 0 0 0 0 0 0 0.25 0"/>
<feBlend mode="normal" in2="BackgroundImageFix" result="effect1_dropShadow_1803_242"/>
<feBlend mode="normal" in="SourceGraphic" in2="effect1_dropShadow_1803_242" result="shape"/>
</filter>
<filter id="filter1_d_1803_242" x="18" y="16" width="96.0001" height="108" filterUnits="userSpaceOnUse" color-interpolation-filters="sRGB">
<feFlood flood-opacity="0" result="BackgroundImageFix"/>
<feColorMatrix in="SourceAlpha" type="matrix" values="0 0 0 0 0 0 0 0 0 0 0 0 0 0 0 0 0 0 127 0" result="hardAlpha"/>
<feOffset dy="4"/>
<feGaussianBlur stdDeviation="2"/>
<feComposite in2="hardAlpha" operator="out"/>
<feColorMatrix type="matrix" values="0 0 0 0 0 0 0 0 0 0 0 0 0 0 0 0 0 0 0.25 0"/>
<feBlend mode="normal" in2="BackgroundImageFix" result="effect1_dropShadow_1803_242"/>
<feBlend mode="normal" in="SourceGraphic" in2="effect1_dropShadow_1803_242" result="shape"/>
</filter>
<filter id="filter2_d_1803_242" x="75.5" y="74" width="40" height="46.4574" filterUnits="userSpaceOnUse" color-interpolation-filters="sRGB">
<feFlood flood-opacity="0" result="BackgroundImageFix"/>
<feColorMatrix in="SourceAlpha" type="matrix" values="0 0 0 0 0 0 0 0 0 0 0 0 0 0 0 0 0 0 127 0" result="hardAlpha"/>
<feOffset dy="4"/>
<feGaussianBlur stdDeviation="2"/>
<feComposite in2="hardAlpha" operator="out"/>
<feColorMatrix type="matrix" values="0 0 0 0 0 0 0 0 0 0 0 0 0 0 0 0 0 0 0.25 0"/>
<feBlend mode="normal" in2="BackgroundImageFix" result="effect1_dropShadow_1803_242"/>
<feBlend mode="normal" in="SourceGraphic" in2="effect1_dropShadow_1803_242" result="shape"/>
</filter>
<linearGradient id="paint0_linear_1803_242" x1="66.2954" y1="15.8053" x2="108.654" y2="76.4667" gradientUnits="userSpaceOnUse">
<stop stop-color="#EB5757"/>
<stop offset="1" stop-color="#FC3131" stop-opacity="0"/>
</linearGradient>
<linearGradient id="paint1_linear_1803_242" x1="65.715" y1="16" x2="12.0949" y2="107.698" gradientUnits="userSpaceOnUse">
<stop stop-color="#EB5757"/>
<stop offset="1" stop-color="#FC3131" stop-opacity="0"/>
</linearGradient>
<linearGradient id="paint2_linear_1803_242" x1="86" y1="30" x2="86" y2="97.0392" gradientUnits="userSpaceOnUse">
<stop stop-color="white"/>
<stop offset="1" stop-color="#EB5757"/>
</linearGradient>
<linearGradient id="paint3_linear_1803_242" x1="42" y1="30" x2="42" y2="97.0392" gradientUnits="userSpaceOnUse">
<stop stop-color="white"/>
<stop offset="1" stop-color="#EB5757"/>
</linearGradient>
</defs>
</svg>
