<svg width="128" height="128" viewBox="0 0 128 128" fill="none" xmlns="http://www.w3.org/2000/svg">
<g clip-path="url(#clip0_1_66)">
<g filter="url(#filter0_d_1_66)">
<path fill-rule="evenodd" clip-rule="evenodd" d="M63.6182 122C63.3296 121.954 63.0454 121.884 62.7687 121.791C62.1231 121.598 61.2906 121.281 60.2712 120.804C58.2324 119.858 55.6244 118.378 52.6851 116.345C45.298 111.108 38.7493 104.811 33.2571 97.6639C20.2853 80.9575 9.4117 55.5757 14.1179 20.7991C14.2245 20.0525 14.5424 19.3505 15.0351 18.7735C15.5279 18.1965 16.1757 17.7678 16.9043 17.5364C22.4345 15.7545 31.7705 12.8516 41.0045 10.3837C50.434 7.86557 59.1073 6 63.6182 6C68.129 6 76.8024 7.86557 86.2318 10.3837C95.4659 12.8516 104.802 15.7545 110.332 17.5364C111.061 17.7678 111.708 18.1965 112.201 18.7735C112.694 19.3505 113.012 20.0525 113.118 20.7991C117.825 55.5757 106.951 80.9575 93.9792 97.6639C88.487 104.811 81.9383 111.108 74.5512 116.345C71.612 118.378 69.004 119.858 66.9652 120.804C65.9458 121.281 65.1133 121.598 64.4677 121.791C64.1909 121.884 63.9068 121.954 63.6182 122Z" fill="#4F4F4F"/>
</g>
<path d="M64.8056 118.802C64.5431 118.89 64.2737 118.956 64 119V9C68.2775 9 76.5023 10.7691 85.444 13.1569C94.2004 15.4972 103.053 18.25 108.298 19.9397C108.989 20.1591 109.603 20.5657 110.07 21.1128C110.537 21.66 110.839 22.3256 110.94 23.0336C115.403 56.0114 105.092 80.0803 92.7907 95.9227C87.5825 102.701 81.3725 108.672 74.3675 113.637C71.5803 115.565 69.1072 116.969 67.1739 117.866C66.2072 118.318 65.4178 118.619 64.8056 118.802Z" fill="url(#paint0_linear_1_66)"/>
<path d="M63.1944 118.802C63.4569 118.89 63.7263 118.956 64 119V9C59.7225 9 51.4977 10.7691 42.556 13.1569C33.7996 15.4972 24.9465 18.25 19.7023 19.9397C19.0114 20.1591 18.3971 20.5657 17.9299 21.1128C17.4626 21.66 17.1612 22.3256 17.0601 23.0336C12.5973 56.0114 22.9085 80.0803 35.2093 95.9227C40.4175 102.701 46.6275 108.672 53.6325 113.637C56.4197 115.565 58.8928 116.969 60.8261 117.866C61.7928 118.318 62.5822 118.619 63.1944 118.802Z" fill="url(#paint1_linear_1_66)"/>
<path d="M99 38.3922C77.9458 43.5265 76.5665 63.7721 73 98.0392V31L99 38.3922Z" fill="url(#paint2_linear_1_66)"/>
<path d="M29 38.3922C50.0542 43.5265 51.4335 63.7721 55 98.0392V31L29 38.3922Z" fill="url(#paint3_linear_1_66)"/>
<g filter="url(#filter1_d_1_66)">
<path fill-rule="evenodd" clip-rule="evenodd" d="M109.46 79.0884C105.889 73.9773 98.8364 72.4623 93.7369 75.7114L84.7809 81.4195C82.3345 82.9585 80.6495 85.4568 80.139 88.3015C79.7118 90.6714 80.0873 93.1161 81.2061 95.2485C80.4395 96.4114 79.9166 97.7177 79.6691 99.0884C79.1537 101.988 79.8279 104.973 81.5395 107.369C85.1113 112.481 92.1641 113.995 97.2629 110.746L106.219 105.038C108.665 103.499 110.35 101.001 110.861 98.1558C111.288 95.7859 110.913 93.3413 109.794 91.2086C110.561 90.0458 111.084 88.7396 111.331 87.369C111.847 84.4695 111.172 81.4846 109.46 79.0884Z" fill="#EB5757"/>
<path d="M92.8439 107.902C89.9562 108.653 86.9067 107.523 85.2061 105.071C84.1763 103.63 83.7706 101.834 84.0807 100.09C84.1327 99.8068 84.2042 99.5272 84.2948 99.2536L84.4635 98.7392L84.9225 99.0763C85.9824 99.8551 87.1676 100.447 88.4269 100.827L88.7598 100.928L88.7292 101.261C88.6885 101.733 88.8165 102.205 89.0905 102.593C89.6023 103.331 90.5204 103.672 91.3901 103.446C91.5848 103.394 91.7704 103.313 91.9404 103.204L100.221 97.9272L100.444 98.2763C100.618 98.5503 101.035 98.4877 101.121 98.1745L102.096 94.6392C102.155 94.425 102.016 94.2067 101.797 94.1697L98.1811 93.5592C97.8607 93.5051 97.6278 93.8564 97.8024 94.1305L98.0206 94.4729L95.1331 96.3136C94.571 96.671 93.9575 96.9404 93.3139 97.1125C90.4263 97.8633 87.3768 96.7329 85.6762 94.2814C84.6464 92.8399 84.2407 91.0444 84.5508 89.3002C84.8578 87.589 85.8715 86.0864 87.3432 85.161L96.3013 79.4514C96.8637 79.0934 97.4776 78.8236 98.1217 78.6515C101.009 77.9008 104.059 79.0311 105.759 81.4826C106.789 82.9241 107.195 84.7196 106.885 86.4638C106.833 86.7472 106.761 87.0267 106.671 87.3004L106.502 87.8148L106.043 87.4782C104.983 86.699 103.798 86.1065 102.539 85.7265L102.206 85.6255L102.236 85.2932C102.277 84.8205 102.149 84.3487 101.875 83.9612C101.363 83.2227 100.445 82.882 99.5753 83.1077C99.3806 83.1597 99.1951 83.2413 99.0251 83.3495L90.6871 88.6614L90.451 88.2908C90.2764 88.0168 89.8596 88.0794 89.7732 88.3926L88.7983 91.9279C88.7393 92.1421 88.8783 92.3604 89.0974 92.3974L92.7135 93.0079C93.0339 93.062 93.2668 92.7107 93.0922 92.4366L92.8886 92.1171L95.8326 90.2409C96.3945 89.883 97.0079 89.6134 97.6516 89.4414C100.539 88.6906 103.589 89.8209 105.289 92.2725C106.319 93.7139 106.725 95.5095 106.415 97.2536C106.107 98.9649 105.094 100.468 103.622 101.394L94.6641 107.103C94.1017 107.461 93.4878 107.73 92.8437 107.902H92.8439Z" fill="white"/>
</g>
</g>
<defs>
<filter id="filter0_d_1_66" x="9" y="6" width="109.236" height="124" filterUnits="userSpaceOnUse" color-interpolation-filters="sRGB">
<feFlood flood-opacity="0" result="BackgroundImageFix"/>
<feColorMatrix in="SourceAlpha" type="matrix" values="0 0 0 0 0 0 0 0 0 0 0 0 0 0 0 0 0 0 127 0" result="hardAlpha"/>
<feOffset dy="4"/>
<feGaussianBlur stdDeviation="2"/>
<feComposite in2="hardAlpha" operator="out"/>
<feColorMatrix type="matrix" values="0 0 0 0 0 0 0 0 0 0 0 0 0 0 0 0 0 0 0.25 0"/>
<feBlend mode="normal" in2="BackgroundImageFix" result="effect1_dropShadow_1_66"/>
<feBlend mode="normal" in="SourceGraphic" in2="effect1_dropShadow_1_66" result="shape"/>
</filter>
<filter id="filter1_d_1_66" x="75.5" y="74" width="40" height="46.4575" filterUnits="userSpaceOnUse" color-interpolation-filters="sRGB">
<feFlood flood-opacity="0" result="BackgroundImageFix"/>
<feColorMatrix in="SourceAlpha" type="matrix" values="0 0 0 0 0 0 0 0 0 0 0 0 0 0 0 0 0 0 127 0" result="hardAlpha"/>
<feOffset dy="4"/>
<feGaussianBlur stdDeviation="2"/>
<feComposite in2="hardAlpha" operator="out"/>
<feColorMatrix type="matrix" values="0 0 0 0 0 0 0 0 0 0 0 0 0 0 0 0 0 0 0.25 0"/>
<feBlend mode="normal" in2="BackgroundImageFix" result="effect1_dropShadow_1_66"/>
<feBlend mode="normal" in="SourceGraphic" in2="effect1_dropShadow_1_66" result="shape"/>
</filter>
<linearGradient id="paint0_linear_1_66" x1="64.3222" y1="8.78579" x2="111.049" y2="75.1493" gradientUnits="userSpaceOnUse">
<stop stop-color="#1A1A1A"/>
<stop offset="1" stop-color="#1A1A1A" stop-opacity="0"/>
</linearGradient>
<linearGradient id="paint1_linear_1_66" x1="63.6891" y1="9" x2="4.46795" y2="109.439" gradientUnits="userSpaceOnUse">
<stop stop-color="#1A1A1A"/>
<stop offset="1" stop-color="#1A1A1A" stop-opacity="0"/>
</linearGradient>
<linearGradient id="paint2_linear_1_66" x1="86" y1="31" x2="86" y2="98.0392" gradientUnits="userSpaceOnUse">
<stop stop-color="white"/>
<stop offset="1" stop-color="#EB5757"/>
</linearGradient>
<linearGradient id="paint3_linear_1_66" x1="42" y1="31" x2="42" y2="98.0392" gradientUnits="userSpaceOnUse">
<stop stop-color="white"/>
<stop offset="1" stop-color="#EB5757"/>
</linearGradient>
<clipPath id="clip0_1_66">
<rect width="128" height="128" rx="20" fill="white"/>
</clipPath>
</defs>
</svg>
