<?xml version="1.0" standalone="no"?>
<!DOCTYPE svg PUBLIC "-//W3C//DTD SVG 20010904//EN"
 "http://www.w3.org/TR/2001/REC-SVG-20010904/DTD/svg10.dtd">
<svg version="1.0" xmlns="http://www.w3.org/2000/svg"
 width="700.000000pt" height="700.000000pt" viewBox="0 0 700.000000 700.000000"
 preserveAspectRatio="xMidYMid meet">
<metadata>
Created by potrace 1.14, written by Peter Selinger 2001-2017
</metadata>
<g transform="translate(0.000000,700.000000) scale(0.100000,-0.100000)"
fill="#000000" stroke="none">
<path d="M3335 6834 c-835 -34 -1607 -196 -2674 -561 l-224 -76 6 -381 c45
-2648 595 -4174 1802 -4998 306 -209 613 -356 1029 -493 l159 -52 111 34 c902
283 1582 778 2063 1503 411 620 686 1423 832 2435 75 515 121 1166 121 1707
l0 246 -47 17 c-1063 372 -1843 555 -2568 604 -173 12 -493 20 -610 15z m540
-35 c653 -41 1361 -199 2290 -511 l280 -94 3 -130 c4 -141 -13 -665 -28 -894
-182 -2706 -1075 -4158 -2921 -4745 l-117 -37 -194 65 c-1324 446 -2075 1316
-2453 2842 -174 702 -258 1471 -281 2566 l-7 326 34 12 c19 7 140 48 269 92
1241 421 2158 570 3125 508z"/>
<path d="M3754 5835 c-113 -20 -235 -60 -334 -110 -77 -38 -1024 -637 -1145
-723 -84 -60 -154 -124 -211 -194 -277 -337 -338 -786 -165 -1200 l33 -78 -56
-112 c-65 -132 -99 -244 -116 -382 -63 -494 214 -1000 677 -1239 189 -97 337
-136 549 -144 227 -8 391 22 572 107 70 33 871 536 1134 712 461 308 627 877
413 1408 l-36 89 55 113 c94 191 134 377 123 573 -17 307 -133 567 -354 796
-188 194 -409 316 -678 375 -100 22 -360 27 -461 9z m361 -480 c157 -28 306
-104 416 -214 162 -162 248 -397 220 -604 -11 -83 -40 -187 -51 -187 -4 0 -44
25 -90 56 -106 71 -173 104 -287 144 l-91 32 5 32 c7 45 -12 106 -48 155 -58
81 -183 114 -274 72 -22 -10 -242 -147 -489 -305 l-449 -287 -26 32 c-33 39
-65 34 -80 -14 -34 -109 -101 -368 -101 -390 0 -32 6 -34 258 -77 142 -24 187
-28 198 -19 17 14 18 43 2 69 -7 10 -10 21 -8 23 20 17 346 220 387 240 255
129 594 84 825 -110 173 -145 268 -347 268 -568 0 -195 -60 -345 -190 -476
-65 -65 -142 -118 -595 -407 -287 -182 -548 -344 -581 -361 -105 -52 -174 -66
-329 -65 -125 0 -149 3 -220 27 -258 87 -454 289 -522 537 -27 100 -25 284 5
378 12 39 25 72 27 72 2 0 42 -25 87 -57 89 -61 203 -117 311 -155 l67 -23 0
-51 c0 -148 152 -264 290 -221 25 8 252 146 504 307 l460 293 21 -27 c24 -30
60 -34 73 -8 14 26 112 387 112 411 0 13 -9 25 -22 31 -39 16 -414 74 -433 67
-13 -5 -16 -14 -12 -35 3 -15 7 -36 9 -46 2 -16 -33 -43 -172 -132 -191 -123
-267 -159 -378 -180 -363 -69 -736 135 -870 476 -38 98 -46 143 -46 260 0 137
17 210 77 325 79 152 122 186 722 567 292 185 548 345 570 356 127 63 292 84
450 57z m-1045 -1295 c26 -26 25 -60 0 -88 -20 -22 -64 -29 -86 -14 -15 10
-34 47 -34 66 0 26 38 56 70 56 17 0 39 -9 50 -20z m941 -538 c26 -22 31 -75
8 -97 -26 -26 -63 -28 -92 -5 -33 26 -35 65 -5 97 26 28 58 29 89 5z"/>
</g>
</svg>
