<svg width="512" height="512" viewBox="0 0 512 512" fill="none" xmlns="http://www.w3.org/2000/svg">
<g filter="url(#filter0_d_342_190)">
<path fill-rule="evenodd" clip-rule="evenodd" d="M254.473 488C253.318 487.815 252.182 487.535 251.075 487.163C248.492 486.394 245.162 485.122 241.085 483.215C232.929 479.433 222.498 473.51 210.741 465.379C181.192 444.433 154.997 419.246 133.028 390.656C81.1411 323.83 37.6468 222.303 56.4717 83.1963C56.898 80.21 58.1695 77.4022 60.1405 75.0942C62.1116 72.7862 64.7026 71.0713 67.6171 70.1457C89.738 63.018 127.082 51.4063 164.018 41.5347C201.736 31.4623 236.429 24 254.473 24C272.516 24 307.21 31.4623 344.927 41.5347C381.863 51.4063 419.207 63.018 441.328 70.1457C444.243 71.0713 446.834 72.7862 448.805 75.0942C450.776 77.4022 452.047 80.21 452.474 83.1963C471.299 222.303 427.804 323.83 375.917 390.656C353.948 419.246 327.753 444.433 298.205 465.379C286.448 473.51 276.016 479.433 267.861 483.215C263.783 485.122 260.453 486.394 257.871 487.163C256.764 487.535 255.627 487.815 254.473 488Z" fill="#4F4F4F"/>
</g>
<path d="M259.222 475.207C258.173 475.56 257.095 475.825 256 476V36C273.11 36 306.009 43.0763 341.776 52.6277C376.802 61.9887 412.214 72.9999 433.191 79.7588C435.954 80.6366 438.411 82.2628 440.281 84.4514C442.15 86.64 443.355 89.3026 443.76 92.1344C461.611 224.046 420.366 320.321 371.163 383.691C350.33 410.802 325.49 434.687 297.47 454.549C286.321 462.26 276.429 467.877 268.696 471.462C264.829 473.271 261.671 474.477 259.222 475.207Z" fill="url(#paint0_linear_342_190)"/>
<path d="M252.778 475.207C253.827 475.56 254.905 475.825 256 476V36C238.89 36 205.991 43.0763 170.224 52.6277C135.198 61.9887 99.7861 72.9999 78.8093 79.7588C76.0456 80.6366 73.5886 82.2628 71.7195 84.4514C69.8504 86.64 68.6447 89.3026 68.2404 92.1344C50.3892 224.046 91.6338 320.321 140.837 383.691C161.67 410.802 186.51 434.687 214.53 454.549C225.679 462.26 235.571 467.877 243.304 471.462C247.171 473.271 250.329 474.477 252.778 475.207Z" fill="url(#paint1_linear_342_190)"/>
<path d="M396 153.569C311.783 174.106 306.266 255.088 292 392.157V124L396 153.569Z" fill="url(#paint2_linear_342_190)"/>
<path d="M116 153.569C200.217 174.106 205.734 255.088 220 392.157V124L116 153.569Z" fill="url(#paint3_linear_342_190)"/>
<g filter="url(#filter1_d_342_190)">
<path fill-rule="evenodd" clip-rule="evenodd" d="M437.841 316.353C423.557 295.909 395.345 289.849 374.947 302.846L339.123 325.678C329.338 331.834 322.598 341.827 320.556 353.206C318.847 362.686 320.349 372.464 324.824 380.994C321.758 385.646 319.666 390.871 318.676 396.353C316.615 407.951 319.311 419.89 326.158 429.476C340.445 449.922 368.656 455.98 389.051 442.984L424.875 420.151C434.661 413.996 441.402 404.003 443.443 392.623C445.151 383.144 443.651 373.365 439.178 364.834C442.243 360.183 444.334 354.958 445.323 349.476C447.386 337.878 444.689 325.938 437.841 316.353Z" fill="#EB5757"/>
<path d="M371.375 431.61C359.825 434.613 347.627 430.092 340.824 420.286C336.705 414.52 335.082 407.338 336.323 400.361C336.531 399.227 336.817 398.109 337.179 397.014L337.854 394.957L339.69 396.305C343.93 399.42 348.67 401.789 353.707 403.309L355.039 403.713L354.917 405.042C354.754 406.933 355.266 408.821 356.362 410.37C358.409 413.324 362.082 414.687 365.56 413.784C366.339 413.576 367.081 413.25 367.761 412.817L400.885 391.709L401.774 393.105C402.473 394.201 404.14 393.951 404.485 392.698L408.385 378.557C408.621 377.7 408.065 376.827 407.189 376.679L392.724 374.237C391.443 374.02 390.511 375.425 391.21 376.522L392.082 377.891L380.532 385.254C378.284 386.684 375.83 387.762 373.256 388.45C361.705 391.453 349.507 386.932 342.705 377.125C338.585 371.36 336.963 364.177 338.203 357.201C339.431 350.356 343.486 344.345 349.373 340.644L385.205 317.805C387.455 316.373 389.91 315.294 392.487 314.606C404.037 311.603 416.235 316.124 423.037 325.93C427.157 331.696 428.779 338.878 427.539 345.855C427.33 346.989 427.044 348.107 426.683 349.201L426.008 351.259L424.173 349.913C419.933 346.796 415.192 344.426 410.154 342.906L408.822 342.502L408.945 341.173C409.106 339.282 408.594 337.395 407.5 335.845C405.453 332.891 401.78 331.528 398.301 332.431C397.522 332.639 396.78 332.965 396.1 333.398L362.748 354.646L361.804 353.163C361.106 352.067 359.438 352.317 359.093 353.57L355.193 367.712C354.957 368.568 355.513 369.441 356.39 369.589L370.854 372.031C372.136 372.248 373.067 370.843 372.369 369.746L371.554 368.468L383.33 360.964C385.578 359.532 388.032 358.453 390.606 357.765C402.157 354.762 414.354 359.284 421.157 369.09C425.276 374.856 426.899 382.038 425.659 389.014C424.43 395.859 420.375 401.871 414.489 405.574L378.656 428.411C376.407 429.843 373.951 430.922 371.375 431.61H371.375Z" fill="white"/>
</g>
<defs>
<filter id="filter0_d_342_190" x="48" y="24" width="412.945" height="472" filterUnits="userSpaceOnUse" color-interpolation-filters="sRGB">
<feFlood flood-opacity="0" result="BackgroundImageFix"/>
<feColorMatrix in="SourceAlpha" type="matrix" values="0 0 0 0 0 0 0 0 0 0 0 0 0 0 0 0 0 0 127 0" result="hardAlpha"/>
<feOffset dy="4"/>
<feGaussianBlur stdDeviation="2"/>
<feComposite in2="hardAlpha" operator="out"/>
<feColorMatrix type="matrix" values="0 0 0 0 0 0 0 0 0 0 0 0 0 0 0 0 0 0 0.25 0"/>
<feBlend mode="normal" in2="BackgroundImageFix" result="effect1_dropShadow_342_190"/>
<feBlend mode="normal" in="SourceGraphic" in2="effect1_dropShadow_342_190" result="shape"/>
</filter>
<filter id="filter1_d_342_190" x="314" y="296" width="136" height="161.83" filterUnits="userSpaceOnUse" color-interpolation-filters="sRGB">
<feFlood flood-opacity="0" result="BackgroundImageFix"/>
<feColorMatrix in="SourceAlpha" type="matrix" values="0 0 0 0 0 0 0 0 0 0 0 0 0 0 0 0 0 0 127 0" result="hardAlpha"/>
<feOffset dy="4"/>
<feGaussianBlur stdDeviation="2"/>
<feComposite in2="hardAlpha" operator="out"/>
<feColorMatrix type="matrix" values="0 0 0 0 0 0 0 0 0 0 0 0 0 0 0 0 0 0 0.25 0"/>
<feBlend mode="normal" in2="BackgroundImageFix" result="effect1_dropShadow_342_190"/>
<feBlend mode="normal" in="SourceGraphic" in2="effect1_dropShadow_342_190" result="shape"/>
</filter>
<linearGradient id="paint0_linear_342_190" x1="257.289" y1="35.1432" x2="444.196" y2="300.597" gradientUnits="userSpaceOnUse">
<stop stop-color="#1A1A1A"/>
<stop offset="1" stop-color="#1A1A1A" stop-opacity="0"/>
</linearGradient>
<linearGradient id="paint1_linear_342_190" x1="254.756" y1="36" x2="17.8718" y2="437.758" gradientUnits="userSpaceOnUse">
<stop stop-color="#1A1A1A"/>
<stop offset="1" stop-color="#1A1A1A" stop-opacity="0"/>
</linearGradient>
<linearGradient id="paint2_linear_342_190" x1="344" y1="124" x2="344" y2="392.157" gradientUnits="userSpaceOnUse">
<stop stop-color="white"/>
<stop offset="1" stop-color="#EB5757"/>
</linearGradient>
<linearGradient id="paint3_linear_342_190" x1="168" y1="124" x2="168" y2="392.157" gradientUnits="userSpaceOnUse">
<stop stop-color="white"/>
<stop offset="1" stop-color="#EB5757"/>
</linearGradient>
</defs>
</svg>
