<svg width="128" height="128" viewBox="0 0 128 128" fill="none" xmlns="http://www.w3.org/2000/svg">
<g filter="url(#filter0_d_324_170)">
<path fill-rule="evenodd" clip-rule="evenodd" d="M64 120C63.7491 119.956 63.5021 119.89 63.2616 119.802C62.7004 119.619 61.9767 119.318 61.0906 118.866C59.3184 117.969 57.0514 116.565 54.4964 114.637C48.0752 109.672 42.3827 103.701 37.6086 96.9227C26.3327 81.0803 16.8809 57.0114 20.9718 24.0336C21.0644 23.3256 21.3407 22.66 21.769 22.1128C22.1974 21.5657 22.7605 21.1591 23.3938 20.9397C28.201 19.25 36.3163 16.4972 44.343 14.1569C52.5396 11.7691 60.0789 10 64 10C67.9211 10 75.4604 11.7691 83.657 14.1569C91.6837 16.4972 99.799 19.25 104.606 20.9397C105.24 21.1591 105.803 21.5657 106.231 22.1128C106.659 22.66 106.936 23.3256 107.028 24.0336C111.119 57.0114 101.667 81.0803 90.3914 96.9227C85.6173 103.701 79.9248 109.672 73.5036 114.637C70.9486 116.565 68.6816 117.969 66.9094 118.866C66.0233 119.318 65.2996 119.619 64.7384 119.802C64.4979 119.89 64.2509 119.956 64 120Z" fill="#4F4F4F"/>
</g>
<path d="M64.7384 119.802C64.4979 119.89 64.2509 119.956 64 120V10C67.9211 10 75.4604 11.7691 83.657 14.1569C91.6837 16.4972 99.799 19.25 104.606 20.9397C105.24 21.1591 105.803 21.5657 106.231 22.1128C106.659 22.66 106.936 23.3256 107.028 24.0336C111.119 57.0114 101.667 81.0803 90.3914 96.9227C85.6173 103.701 79.9248 109.672 73.5036 114.637C70.9486 116.565 68.6816 117.969 66.9094 118.866C66.0233 119.318 65.2996 119.619 64.7384 119.802Z" fill="url(#paint0_linear_324_170)"/>
<path d="M63.2616 119.802C63.5021 119.89 63.7491 119.956 64 120V10C60.0789 10 52.5396 11.7691 44.343 14.1569C36.3163 16.4972 28.201 19.25 23.3938 20.9397C22.7605 21.1591 22.1974 21.5657 21.769 22.1128C21.3407 22.66 21.0644 23.3256 20.9718 24.0336C16.8809 57.0114 26.3327 81.0803 37.6086 96.9227C42.3827 103.701 48.0752 109.672 54.4964 114.637C57.0514 116.565 59.3184 117.969 61.0906 118.866C61.9767 119.318 62.7004 119.619 63.2616 119.802Z" fill="url(#paint1_linear_324_170)"/>
<path d="M99.5 35.8922C78.4458 41.0265 77.0665 61.2721 73.5 95.5392V28.5L99.5 35.8922Z" fill="url(#paint2_linear_324_170)"/>
<path d="M28.5 35.8922C49.5542 41.0265 50.9335 61.2721 54.5 95.5392V28.5L28.5 35.8922Z" fill="url(#paint3_linear_324_170)"/>
<g filter="url(#filter1_d_324_170)">
<path fill-rule="evenodd" clip-rule="evenodd" d="M109.46 77.0884C105.889 71.9773 98.8364 70.4623 93.7369 73.7114L84.7809 79.4195C82.3345 80.9585 80.6495 83.4568 80.139 86.3015C79.7118 88.6714 80.0873 91.1161 81.2061 93.2485C80.4395 94.4114 79.9166 95.7177 79.6691 97.0884C79.1537 99.9878 79.8279 102.973 81.5395 105.369C85.1113 110.481 92.1641 111.995 97.2629 108.746L106.219 103.038C108.665 101.499 110.35 99.0007 110.861 96.1558C111.288 93.7859 110.913 91.3413 109.794 89.2086C110.561 88.0458 111.084 86.7396 111.331 85.369C111.847 82.4695 111.172 79.4846 109.46 77.0884Z" fill="#EB5757"/>
<path d="M92.8439 105.902C89.9562 106.653 86.9067 105.523 85.2061 103.071C84.1763 101.63 83.7706 99.8344 84.0807 98.0902C84.1327 97.8068 84.2042 97.5272 84.2948 97.2536L84.4635 96.7392L84.9225 97.0763C85.9824 97.8551 87.1676 98.4473 88.4269 98.8272L88.7598 98.9283L88.7292 99.2606C88.6885 99.7333 88.8165 100.205 89.0905 100.593C89.6023 101.331 90.5204 101.672 91.3901 101.446C91.5848 101.394 91.7704 101.313 91.9404 101.204L100.221 95.9272L100.444 96.2763C100.618 96.5503 101.035 96.4877 101.121 96.1745L102.096 92.6392C102.155 92.425 102.016 92.2067 101.797 92.1697L98.1811 91.5592C97.8607 91.5051 97.6278 91.8564 97.8024 92.1305L98.0206 92.4729L95.1331 94.3136C94.571 94.671 93.9575 94.9404 93.3139 95.1125C90.4263 95.8633 87.3768 94.7329 85.6762 92.2814C84.6464 90.8399 84.2407 89.0444 84.5508 87.3002C84.8578 85.589 85.8715 84.0864 87.3432 83.161L96.3013 77.4514C96.8637 77.0934 97.4776 76.8236 98.1217 76.6515C101.009 75.9008 104.059 77.0311 105.759 79.4826C106.789 80.9241 107.195 82.7196 106.885 84.4638C106.833 84.7472 106.761 85.0267 106.671 85.3004L106.502 85.8148L106.043 85.4782C104.983 84.699 103.798 84.1065 102.539 83.7265L102.206 83.6255L102.236 83.2932C102.277 82.8205 102.149 82.3487 101.875 81.9612C101.363 81.2227 100.445 80.882 99.5753 81.1077C99.3806 81.1597 99.1951 81.2413 99.0251 81.3495L90.6871 86.6614L90.451 86.2908C90.2764 86.0168 89.8596 86.0794 89.7732 86.3926L88.7983 89.9279C88.7393 90.1421 88.8783 90.3604 89.0974 90.3974L92.7135 91.0079C93.0339 91.062 93.2668 90.7107 93.0922 90.4366L92.8886 90.1171L95.8326 88.2409C96.3945 87.883 97.0079 87.6134 97.6516 87.4414C100.539 86.6906 103.589 87.8209 105.289 90.2725C106.319 91.7139 106.725 93.5095 106.415 95.2536C106.107 96.9649 105.094 98.4677 103.622 99.3936L94.6641 105.103C94.1017 105.461 93.4878 105.73 92.8437 105.902H92.8439Z" fill="white"/>
</g>
<defs>
<filter id="filter0_d_324_170" x="16" y="10" width="96" height="118" filterUnits="userSpaceOnUse" color-interpolation-filters="sRGB">
<feFlood flood-opacity="0" result="BackgroundImageFix"/>
<feColorMatrix in="SourceAlpha" type="matrix" values="0 0 0 0 0 0 0 0 0 0 0 0 0 0 0 0 0 0 127 0" result="hardAlpha"/>
<feOffset dy="4"/>
<feGaussianBlur stdDeviation="2"/>
<feComposite in2="hardAlpha" operator="out"/>
<feColorMatrix type="matrix" values="0 0 0 0 0 0 0 0 0 0 0 0 0 0 0 0 0 0 0.25 0"/>
<feBlend mode="normal" in2="BackgroundImageFix" result="effect1_dropShadow_324_170"/>
<feBlend mode="normal" in="SourceGraphic" in2="effect1_dropShadow_324_170" result="shape"/>
</filter>
<filter id="filter1_d_324_170" x="75.5" y="72" width="40" height="46.4574" filterUnits="userSpaceOnUse" color-interpolation-filters="sRGB">
<feFlood flood-opacity="0" result="BackgroundImageFix"/>
<feColorMatrix in="SourceAlpha" type="matrix" values="0 0 0 0 0 0 0 0 0 0 0 0 0 0 0 0 0 0 127 0" result="hardAlpha"/>
<feOffset dy="4"/>
<feGaussianBlur stdDeviation="2"/>
<feComposite in2="hardAlpha" operator="out"/>
<feColorMatrix type="matrix" values="0 0 0 0 0 0 0 0 0 0 0 0 0 0 0 0 0 0 0.25 0"/>
<feBlend mode="normal" in2="BackgroundImageFix" result="effect1_dropShadow_324_170"/>
<feBlend mode="normal" in="SourceGraphic" in2="effect1_dropShadow_324_170" result="shape"/>
</filter>
<linearGradient id="paint0_linear_324_170" x1="64.2954" y1="9.78579" x2="112.249" y2="72.2161" gradientUnits="userSpaceOnUse">
<stop stop-color="#1A1A1A"/>
<stop offset="1" stop-color="#1A1A1A" stop-opacity="0"/>
</linearGradient>
<linearGradient id="paint1_linear_324_170" x1="63.715" y1="10" x2="2.12996" y2="105.745" gradientUnits="userSpaceOnUse">
<stop stop-color="#1A1A1A"/>
<stop offset="1" stop-color="#1A1A1A" stop-opacity="0"/>
</linearGradient>
<linearGradient id="paint2_linear_324_170" x1="86.5" y1="28.5" x2="86.5" y2="95.5392" gradientUnits="userSpaceOnUse">
<stop stop-color="white"/>
<stop offset="1" stop-color="#EB5757"/>
</linearGradient>
<linearGradient id="paint3_linear_324_170" x1="41.5" y1="28.5" x2="41.5" y2="95.5392" gradientUnits="userSpaceOnUse">
<stop stop-color="white"/>
<stop offset="1" stop-color="#EB5757"/>
</linearGradient>
</defs>
</svg>
